<svg xmlns="http://www.w3.org/2000/svg" version="1.1" xmlns:xlink="http://www.w3.org/1999/xlink" xmlns:svgjs="http://svgjs.dev/svgjs" width="1440" height="560" preserveAspectRatio="none" viewBox="0 0 1440 560"><g mask="url(&quot;#SvgjsMask1091&quot;)" fill="none"><rect width="1440" height="560" x="0" y="0" fill="rgba(20, 10, 81, 1)"></rect><path d="M0,520.052C108.064,521.777,218.067,537.135,316.465,492.429C423.054,444.002,538.755,373.286,570.848,260.697C602.789,148.641,494.327,46.636,476.353,-68.489C458.704,-181.529,540.969,-317.377,466.971,-404.633C393.126,-491.709,247.727,-438.543,137.45,-468.112C30.822,-496.703,-58.853,-584.227,-168.872,-575.125C-287.57,-565.305,-408.449,-511.262,-481.168,-416.934C-552.805,-324.009,-545.552,-196.442,-551.153,-79.244C-556.278,28.007,-554.626,135.28,-512.271,233.946C-469.274,334.107,-405.202,429.279,-310.038,482.428C-217.27,534.239,-106.242,518.356,0,520.052" fill="#100841"></path><path d="M1440 1126.289C1545.652 1150.154 1664.487 1106.931 1744.752 1034.203 1821.711 964.471 1827.921 849.8820000000001 1855.539 749.77 1878.864 665.218 1911.338 580.677 1893.56 494.788 1876.29 411.35400000000004 1813.4479999999999 349.12 1759.036 283.554 1703.429 216.548 1652.789 142.257 1572.68 108.13299999999998 1487.617 71.89800000000002 1391.257 66.05599999999998 1301.615 88.70499999999998 1209.996 111.85300000000001 1135.025 171.346 1066.2 236.10000000000002 990.922 306.925 888.306 376.947 885.436 480.266 882.543 584.417 989.552 653.875 1052.286 737.063 1101.181 801.9 1155.2 856.448 1212.51 913.982 1287.224 988.9870000000001 1336.735 1102.964 1440 1126.289" fill="#180c61"></path></g><defs><mask id="SvgjsMask1091"><rect width="1440" height="560" fill="#ffffff"></rect></mask></defs></svg>