<svg width="162" height="202" viewBox="0 0 162 202" fill="none" xmlns="http://www.w3.org/2000/svg">
<path d="M50.5 73.5L58 68.5L66 72.5L69 153.5L56.5 154L50.5 73.5Z" fill="white" stroke="black"/>
<path d="M81 73.5L88 68L94.5 69.5V153H82L81 73.5Z" fill="white" stroke="black"/>
<path d="M112 72L119.5 69L127 72.5L118.5 154H107L112 72Z" fill="white" stroke="black"/>
<path d="M35.4375 74.4875L41.7656 68.175L49.3594 70.7L55.6875 154.025H43.0312L35.4375 74.4875Z" fill="#EA2121" stroke="black"/>
<path d="M82 81.5L78.5 70L71.5 69L66 72L68.5 154H80.5L82 81.5Z" fill="#EA2121" stroke="black"/>
<path d="M111.5 73.5L104.5 69L96.5 72L93.5 153.5H106.5L111.5 73.5Z" fill="#EA2121" stroke="black"/>
<path d="M121.5 69.5H41V65L40 60L38 55L41.5 51.5L44 46.5L45.5 40L48 36.5L54 37.5L60.5 33.5L61 29.5L65.5 24L67.5 18.5H74L81 15.5L87.5 19.5L96.5 25L103.5 26.5L111.5 28L113.5 36.5L117 43L123.5 44.5L126.5 50.5L121.5 57V69.5Z" fill="#FDEDAD" stroke="black"/>
<path d="M42.5 25.5L34 30L21.5 29.5L21 25.5L19 16.5V11L31.5 9.5H42L43 18L42.5 25.5Z" fill="#FDEDAD" stroke="black"/>
<path d="M129 8L135 12L138.5 14.5L143 20.5L147 25.5L141 31L134.5 27.5L128 24L125.5 19V11L129 8Z" fill="#FDEDAD" stroke="black"/>
<path d="M129.094 50.5C129.094 47.8213 128.027 45.2523 126.128 43.3582C124.229 41.4641 121.654 40.4 118.969 40.4C118.824 40.4 118.683 40.4 118.538 40.4C118.002 38.8817 116.992 37.5753 115.655 36.6731C116.171 35.4552 116.436 34.1469 116.438 32.825C116.438 30.1463 115.371 27.5773 113.472 25.6832C111.573 23.7891 108.998 22.725 106.313 22.725C104.374 22.7272 102.478 23.2912 100.855 24.3486C99.9538 23.65 98.9077 23.1605 97.7929 22.9159C96.678 22.6713 95.5226 22.6777 94.4106 22.9346C93.4876 21.8243 92.2661 21 90.8896 20.5586C90.502 18.7749 89.6355 17.1299 88.3828 15.7997C87.1301 14.4695 85.5384 13.5041 83.778 13.0069C82.0176 12.5096 80.1547 12.4992 78.3889 12.9768C76.623 13.4544 75.0206 14.402 73.753 15.7181C72.8405 15.3419 71.8625 15.1488 70.875 15.15C68.861 15.15 66.9295 15.9481 65.5054 17.3687C64.0813 18.7893 63.2813 20.716 63.2813 22.725C63.2813 22.8689 63.2813 23.0103 63.2813 23.1543C61.8001 23.6766 60.5178 24.6444 59.6111 25.9242C58.7044 27.204 58.2179 28.7329 58.2188 30.3C58.2189 30.7661 58.2638 31.2312 58.3529 31.6888C57.1531 32.4328 55.9845 33.2425 54.8471 34.1178C53.5785 33.2726 52.084 32.8281 50.5585 32.8424C49.0329 32.8566 47.5471 33.3289 46.2945 34.1977C45.0419 35.0665 44.0807 36.2915 43.5361 37.713C42.9915 39.1346 42.8888 40.6869 43.2414 42.1675C42.3852 42.8756 41.6958 43.7629 41.2221 44.7666C40.7483 45.7703 40.5018 46.8656 40.5 47.975C40.5 48.1189 40.5 48.2603 40.5 48.4043C39.2027 48.8575 38.0535 49.6542 37.1754 50.7092C36.2974 51.7641 35.7236 53.0374 35.5155 54.3928C35.3075 55.7481 35.473 57.1344 35.9943 58.4031C36.5156 59.6718 37.3732 60.7751 38.475 61.5949C38.2034 63.3977 38.047 65.2161 38.0067 67.0388C36.4412 67.9521 35.1458 69.2625 34.2522 70.8369C33.3586 72.4112 32.8986 74.1934 32.9189 76.0025L40.5127 154.278C40.5756 154.903 40.8699 155.482 41.3379 155.902C41.806 156.322 42.4142 156.553 43.0439 156.55H118.969C119.598 156.553 120.207 156.322 120.675 155.902C121.143 155.482 121.437 154.903 121.5 154.278L129.094 75.75C129.088 73.9735 128.611 72.2302 127.711 70.6971C126.811 69.164 125.521 67.8957 123.971 67.0211C123.91 64.5558 123.633 62.1005 123.143 59.6834C124.92 58.8926 126.429 57.6036 127.485 55.9732C128.542 54.3429 129.101 52.4413 129.094 50.5ZM45.3296 151.5L37.9688 75.75C37.9794 75.0868 38.1209 74.4322 38.3851 73.8236C38.6494 73.215 39.0312 72.6642 39.5088 72.2028C39.9864 71.7413 40.5505 71.3783 41.1688 71.1343C41.787 70.8903 42.4474 70.7702 43.1123 70.7808C43.7771 70.7914 44.4333 70.9325 45.0434 71.1961C45.6536 71.4597 46.2057 71.8406 46.6683 72.317C47.1308 72.7935 47.4948 73.3561 47.7394 73.9729C47.984 74.5897 48.1044 75.2484 48.0938 75.9116L52.9867 151.5H45.3296ZM58.0618 151.5L53.1563 75.75C53.1616 75.0868 53.2978 74.4312 53.5571 73.8205C53.8164 73.2099 54.1938 72.6561 54.6677 72.1909C55.1415 71.7258 55.7026 71.3582 56.3188 71.1094C56.9351 70.8605 57.5944 70.7351 58.2593 70.7404C58.9241 70.7457 59.5813 70.8816 60.1935 71.1403C60.8057 71.399 61.3608 71.7754 61.8271 72.2481C62.2935 72.7208 62.6619 73.2805 62.9114 73.8952C63.1609 74.5099 63.2866 75.1676 63.2813 75.8308L65.729 151.5H58.0618ZM78.4688 151.5H70.794L68.3438 75.75C68.3438 74.4107 68.8771 73.1262 69.8265 72.1791C70.7759 71.2321 72.0636 70.7 73.4063 70.7C74.7489 70.7 76.0366 71.2321 76.986 72.1791C77.9354 73.1262 78.4688 74.4107 78.4688 75.75V151.5ZM91.2035 151.5H83.5313V75.75C83.5205 74.4107 84.0436 73.1219 84.9854 72.1673C85.9272 71.2126 87.2106 70.6703 88.5533 70.6596C89.8959 70.6489 91.1879 71.1707 92.1449 72.1102C93.1019 73.0496 93.6455 74.3299 93.6563 75.6692L91.2035 151.5ZM103.938 151.5H96.271L98.7188 75.75C98.6973 74.4107 99.21 73.1177 100.144 72.1555C101.078 71.1932 102.358 70.6406 103.7 70.6192C105.043 70.5978 106.339 71.1093 107.304 72.0412C108.268 72.9731 108.822 74.2491 108.844 75.5884L103.938 151.5ZM124.044 75.4975L116.67 151.5H109.013L113.906 75.75C113.873 74.409 114.375 73.1096 115.301 72.1377C116.228 71.1658 117.504 70.6009 118.849 70.5674C120.193 70.534 121.495 71.0346 122.47 71.9591C123.444 72.8837 124.01 74.1565 124.044 75.4975ZM119.741 55.4541C119.391 55.5083 119.056 55.6351 118.759 55.8263C118.461 56.0176 118.207 56.2689 118.013 56.5643C117.819 56.8596 117.689 57.1922 117.631 57.5407C117.574 57.8893 117.591 58.2459 117.68 58.5876C118.29 60.9032 118.685 63.2698 118.86 65.6576C117.438 65.6791 116.037 65.9992 114.747 66.5969C113.457 67.1947 112.308 68.0567 111.375 69.1269C110.436 68.0345 109.271 67.1576 107.96 66.5564C106.65 65.9552 105.224 65.644 103.781 65.644C102.339 65.644 100.913 65.9552 99.6023 66.5564C98.2915 67.1576 97.1266 68.0345 96.1875 69.1269C95.2493 68.033 94.0848 67.1547 92.7739 66.5525C91.463 65.9503 90.037 65.6385 88.5938 65.6385C87.1506 65.6385 85.7245 65.9503 84.4136 66.5525C83.1028 67.1547 81.9382 68.033 81 69.1269C80.0633 68.0307 78.8992 67.1504 77.5881 66.5467C76.2771 65.943 74.8503 65.6304 73.4063 65.6304C71.9623 65.6304 70.5355 65.943 69.2244 66.5467C67.9133 67.1504 66.7492 68.0307 65.8125 69.1269C64.8772 68.0284 63.7136 67.146 62.4023 66.5408C61.0911 65.9356 59.6636 65.6221 58.2188 65.6221C56.774 65.6221 55.3464 65.9356 54.0352 66.5408C52.7239 67.146 51.5603 68.0284 50.625 69.1269C49.6964 68.0501 48.5493 67.182 47.2594 66.58C45.9696 65.9781 44.5665 65.6559 43.1426 65.6349C43.2412 63.9906 43.4458 62.3544 43.7552 60.7364C43.8725 60.1467 43.7751 59.5346 43.4805 59.0102C43.1859 58.4858 42.7133 58.0834 42.1479 57.8755C41.6683 57.7016 41.2536 57.3857 40.959 56.97C40.6645 56.5544 40.5044 56.059 40.5 55.55C40.5 54.8803 40.7667 54.2381 41.2414 53.7646C41.7161 53.291 42.3599 53.025 43.0313 53.025C43.1597 53.0327 43.2874 53.0496 43.4135 53.0755C43.8883 53.1446 44.3729 53.0776 44.811 52.8824C45.2491 52.6872 45.6226 52.3718 45.8879 51.973C46.1532 51.5742 46.2994 51.1084 46.3094 50.6299C46.3195 50.1514 46.193 49.6799 45.9447 49.2703C45.7 48.882 45.5677 48.4337 45.5625 47.975C45.5664 47.4527 45.7325 46.9444 46.0381 46.5202C46.3436 46.096 46.7735 45.7768 47.2686 45.6066C47.6331 45.479 47.9636 45.2699 48.2346 44.9953C48.5056 44.7207 48.7101 44.3879 48.8322 44.0223C48.9544 43.6567 48.991 43.2681 48.9394 42.8862C48.8877 42.5043 48.7491 42.1393 48.5342 41.8191C48.2041 41.2695 48.0958 40.6153 48.2312 39.9891C48.3666 39.3628 48.7356 38.8113 49.2634 38.4463C49.7912 38.0813 50.4383 37.93 51.0737 38.0232C51.7092 38.1164 52.2853 38.447 52.6854 38.9481C52.8898 39.2317 53.1509 39.4699 53.4523 39.6476C53.7536 39.8254 54.0887 39.9389 54.4362 39.9809C54.7838 40.0229 55.1363 39.9925 55.4715 39.8917C55.8067 39.7908 56.1173 39.6217 56.3836 39.3951C58.3285 37.7308 60.4367 36.2665 62.6763 35.0243C62.9703 34.8623 63.2291 34.6436 63.4375 34.3809C63.646 34.1181 63.7999 33.8167 63.8904 33.494C63.9808 33.1713 64.006 32.8339 63.9645 32.5015C63.9229 32.169 63.8154 31.8481 63.6483 31.5575C63.4147 31.1789 63.2879 30.7445 63.2813 30.3C63.2813 29.6303 63.5479 28.9881 64.0226 28.5146C64.4973 28.041 65.1412 27.775 65.8125 27.775C65.941 27.7827 66.0687 27.7996 66.1947 27.8255C66.6695 27.8946 67.1542 27.8276 67.5923 27.6324C68.0304 27.4372 68.4038 27.1218 68.6691 26.723C68.9344 26.3242 69.0806 25.8584 69.0907 25.3799C69.1007 24.9014 68.9743 24.4299 68.726 24.0203C68.4813 23.632 68.349 23.1837 68.3438 22.725C68.3462 22.2315 68.4935 21.7495 68.7675 21.3386C69.0416 20.9277 69.4303 20.6059 69.8857 20.4131C70.3411 20.2202 70.8431 20.1647 71.3298 20.2533C71.8165 20.342 72.2665 20.571 72.6241 20.9121C72.904 21.1806 73.2421 21.3813 73.6122 21.4986C73.9823 21.616 74.3745 21.6468 74.7585 21.5887C75.1424 21.5306 75.5078 21.3851 75.8264 21.1636C76.145 20.9421 76.4082 20.6504 76.5956 20.3111C77.1301 19.3264 77.9789 18.5479 79.0074 18.0993C80.036 17.6507 81.1853 17.5577 82.2728 17.835C83.3604 18.1123 84.324 18.7441 85.0106 19.63C85.6971 20.5159 86.0674 21.6052 86.0625 22.725C86.0625 23.3947 86.3292 24.0369 86.8039 24.5104C87.2786 24.984 87.9224 25.25 88.5938 25.25C89.1169 25.2544 89.6259 25.4204 90.0506 25.7251C90.4754 26.0299 90.795 26.4585 90.9655 26.9519C91.0929 27.3174 91.3028 27.6489 91.579 27.9207C91.8552 28.1925 92.1903 28.3973 92.5585 28.5193C92.9267 28.6413 93.3181 28.6773 93.7024 28.6244C94.0867 28.5715 94.4537 28.4312 94.7751 28.2144C95.0695 28.03 95.3981 27.9068 95.7413 27.852C96.0846 27.7972 96.4353 27.8119 96.7727 27.8953C97.1101 27.9788 97.4272 28.1292 97.705 28.3376C97.9828 28.5459 98.2157 28.808 98.3897 29.1082C98.5865 29.4639 98.8664 29.7669 99.2057 29.9916C99.545 30.2163 99.9336 30.356 100.339 30.3988C100.744 30.4417 101.153 30.3865 101.532 30.2379C101.911 30.0892 102.248 29.8515 102.516 29.545C102.981 28.9923 103.562 28.5476 104.218 28.2419C104.874 27.9362 105.589 27.7768 106.313 27.775C107.295 27.7698 108.258 28.0515 109.083 28.5856C109.907 29.1196 110.557 29.8825 110.952 30.7804C111.347 31.6783 111.47 32.6718 111.306 33.6385C111.142 34.6053 110.698 35.503 110.028 36.2211C109.711 36.566 109.496 36.9921 109.407 37.4518C109.319 37.9115 109.36 38.3868 109.526 38.8245C109.693 39.2622 109.978 39.6451 110.35 39.9304C110.722 40.2158 111.166 40.3924 111.633 40.4404C112.24 40.4924 112.806 40.7641 113.226 41.2041C113.646 41.6441 113.889 42.2221 113.911 42.8291L113.871 43.1321C113.824 43.5583 113.888 43.9893 114.054 44.3844C114.221 44.7796 114.486 45.1258 114.824 45.3906C115.162 45.6553 115.562 45.8298 115.987 45.8976C116.411 45.9655 116.846 45.9244 117.25 45.7783C117.799 45.568 118.381 45.4568 118.969 45.45C120.243 45.4448 121.472 45.9205 122.409 46.7815C123.346 47.6426 123.922 48.8253 124.021 50.0924C124.121 51.3594 123.736 52.6171 122.944 53.6129C122.153 54.6088 121.013 55.2692 119.753 55.4616L119.741 55.4541Z" fill="black"/>
<path d="M18.7085 21.5383C18.0615 22.669 17.7204 23.9481 17.7188 25.25C17.7188 27.259 18.5188 29.1858 19.9429 30.6063C21.367 32.0269 23.2985 32.825 25.3125 32.825C26.464 32.8274 27.6002 32.562 28.631 32.0498C29.9986 32.5594 31.4463 32.8219 32.9063 32.825C36.2617 32.821 39.4785 31.4896 41.8511 29.1228C44.2238 26.756 45.5585 23.5471 45.5625 20.2C45.5594 18.7437 45.2962 17.2996 44.7854 15.9353C45.2988 14.9071 45.5649 13.7737 45.5625 12.625C45.5667 11.091 45.1026 9.59209 44.232 8.32758C43.3614 7.06307 42.1255 6.09291 40.6887 5.54609C39.2519 4.99927 37.6823 4.90171 36.1886 5.26639C34.6949 5.63108 33.3478 6.44071 32.3266 7.58764C30.5234 7.67166 28.7602 8.14734 27.1603 8.98144C26.3365 8.3578 25.3936 7.90861 24.3895 7.6614C23.3855 7.41419 22.3414 7.37418 21.3212 7.54381C20.3011 7.71345 19.3265 8.08916 18.4571 8.64791C17.5877 9.20665 16.8419 9.93665 16.2654 10.7932C15.6889 11.6497 15.2939 12.6146 15.1045 13.6288C14.9151 14.643 14.9355 15.6851 15.1642 16.6912C15.393 17.6973 15.8253 18.6462 16.4348 19.4797C17.0443 20.3132 17.818 21.0137 18.7085 21.5383ZM22.7813 12.625C23.1767 12.6261 23.5663 12.7205 23.9182 12.9004C24.2701 13.0803 24.5744 13.3407 24.8063 13.6603C25.005 13.9283 25.2549 14.1544 25.5416 14.3256C25.8283 14.4968 26.1462 14.6096 26.4769 14.6576C26.8076 14.7088 27.1452 14.6925 27.4694 14.6096C27.7936 14.5267 28.0975 14.379 28.3627 14.1754C29.6814 13.1736 31.2943 12.6331 32.9518 12.6376C33.1012 12.6578 33.2505 12.678 33.4024 12.6856C33.8785 12.7144 34.3531 12.6098 34.7727 12.3835C35.1923 12.1573 35.54 11.8185 35.7767 11.4054C35.9907 11.0113 36.3072 10.6821 36.693 10.4523C37.0787 10.2226 37.5195 10.1009 37.9688 10.1C38.6401 10.1 39.2839 10.366 39.7586 10.8396C40.2333 11.3131 40.5 11.9553 40.5 12.625C40.4943 13.186 40.299 13.7287 39.9457 14.1653C39.6502 14.5416 39.468 14.9938 39.42 15.4694C39.3721 15.945 39.4604 16.4244 39.6748 16.8519C40.2087 17.8881 40.4913 19.0349 40.5 20.2C40.5 22.209 39.7 24.1358 38.2759 25.5563C36.8518 26.9769 34.9203 27.775 32.9063 27.775C31.7383 27.7663 30.5887 27.4844 29.5498 26.9519C29.1994 26.7766 28.8129 26.685 28.4209 26.6842C27.854 26.685 27.3036 26.8742 26.8566 27.222C26.419 27.5745 25.8749 27.7693 25.3125 27.775C24.6412 27.775 23.9974 27.509 23.5227 27.0355C23.048 26.5619 22.7813 25.9197 22.7813 25.25C22.7821 24.8018 22.9041 24.3622 23.1345 23.9774C23.3648 23.5925 23.6948 23.2768 24.0899 23.0634C24.506 22.8296 24.8473 22.4831 25.0744 22.064C25.3015 21.6449 25.4051 21.1703 25.3733 20.6949C25.363 20.5289 25.3427 20.3636 25.3125 20.2C25.3125 19.5303 25.0458 18.8881 24.5711 18.4146C24.0964 17.941 23.4526 17.675 22.7813 17.675C22.1099 17.675 21.4661 17.409 20.9914 16.9355C20.5167 16.4619 20.25 15.8197 20.25 15.15C20.25 14.4803 20.5167 13.8381 20.9914 13.3646C21.4661 12.891 22.1099 12.625 22.7813 12.625Z" fill="black"/>
<path d="M29.5 10.5L18.5 12L20.5 19.5L21.5 28.5L35 30.5L44 22.5L43 12L40.5 7.5L38 8" stroke="black"/>
<path d="M31.5 10L20 11L19 15L20 22L21 28.5L30 30.5" stroke="black"/>
<path d="M144.046 18.0285C143.627 16.1472 142.679 14.4241 141.313 13.0614C139.946 11.6987 138.219 10.7528 136.333 10.3348C135.975 9.21798 135.362 8.19932 134.542 7.35903C133.722 6.51875 132.718 5.8798 131.609 5.4925C130.499 5.1052 129.315 4.98012 128.148 5.12711C126.982 5.2741 125.866 5.68915 124.888 6.33957C123.91 6.99 123.097 7.85803 122.512 8.87533C121.928 9.89263 121.588 11.0314 121.519 12.202C121.451 13.3726 121.656 14.543 122.118 15.6211C122.581 16.6992 123.287 17.6556 124.183 18.4148C124.08 19.0043 124.03 19.6017 124.031 20.2C124.031 22.8787 125.098 25.4477 126.997 27.3418C128.896 29.2359 131.471 30.3 134.156 30.3C134.757 30.3001 135.357 30.2477 135.948 30.1434C136.71 31.037 137.668 31.7421 138.749 32.2032C139.83 32.6643 141.003 32.8688 142.177 32.8006C143.35 32.7325 144.492 32.3935 145.511 31.8103C146.531 31.2272 147.401 30.4159 148.054 29.4403C148.706 28.4646 149.122 27.3513 149.269 26.188C149.416 25.0247 149.291 23.8431 148.903 22.7364C148.514 21.6296 147.874 20.6279 147.032 19.8101C146.189 18.9922 145.168 18.3806 144.048 18.0234L144.046 18.0285ZM141.75 27.775C141.25 27.775 140.762 27.6276 140.346 27.3513C139.93 27.0749 139.606 26.6821 139.414 26.2221C139.286 25.9157 139.099 25.6373 138.864 25.4029C138.629 25.1685 138.349 24.9827 138.042 24.8561C137.736 24.7311 137.408 24.6668 137.077 24.6667C136.743 24.666 136.411 24.7322 136.103 24.8611C135.177 25.2455 134.158 25.347 133.174 25.1527C132.19 24.9584 131.287 24.4771 130.578 23.7698C129.869 23.0625 129.386 22.1611 129.191 21.1798C128.996 20.1986 129.098 19.1818 129.484 18.2583C129.611 17.9521 129.678 17.6237 129.678 17.292C129.679 16.9602 129.614 16.6316 129.487 16.3249C129.361 16.0182 129.175 15.7394 128.94 15.5044C128.705 15.2695 128.426 15.083 128.119 14.9556C127.696 14.7796 127.329 14.4926 127.057 14.1249C126.785 13.7573 126.618 13.3229 126.574 12.868C126.53 12.4132 126.611 11.9549 126.807 11.5421C127.004 11.1293 127.309 10.7775 127.69 10.524C128.071 10.2706 128.514 10.1252 128.972 10.1031C129.429 10.0811 129.884 10.1834 130.288 10.399C130.692 10.6147 131.03 10.9356 131.265 11.3276C131.501 11.7196 131.625 12.168 131.625 12.625C131.625 13.2947 131.892 13.9369 132.366 14.4104C132.841 14.884 133.485 15.15 134.156 15.15C135.499 15.15 136.787 15.682 137.736 16.6291C138.685 17.5762 139.219 18.8607 139.219 20.2C139.219 20.8697 139.485 21.5119 139.96 21.9854C140.435 22.459 141.079 22.725 141.75 22.725C142.421 22.725 143.065 22.991 143.54 23.4646C144.015 23.9381 144.281 24.5803 144.281 25.25C144.281 25.9197 144.015 26.5619 143.54 27.0354C143.065 27.509 142.421 27.775 141.75 27.775Z" fill="black"/>
<path d="M83.5312 40.4C80.8459 40.4 78.2706 41.4641 76.3718 43.3582C74.473 45.2523 73.4062 47.8213 73.4062 50.5H78.4688C78.4688 49.1607 79.0021 47.8762 79.9515 46.9291C80.9009 45.982 82.1886 45.45 83.5312 45.45C84.8739 45.45 86.1616 45.982 87.111 46.9291C88.0604 47.8762 88.5938 49.1607 88.5938 50.5H93.6562C93.6562 47.8213 92.5895 45.2523 90.6907 43.3582C88.7919 41.4641 86.2166 40.4 83.5312 40.4Z" fill="black"/>
<path d="M58.2188 47.975C56.2048 47.975 54.2733 48.7731 52.8492 50.1937C51.4251 51.6143 50.625 53.541 50.625 55.55H55.6875C55.6875 54.8803 55.9542 54.2381 56.4289 53.7646C56.9036 53.291 57.5474 53.025 58.2188 53.025C58.8901 53.025 59.5339 53.291 60.0086 53.7646C60.4833 54.2381 60.75 54.8803 60.75 55.55H65.8125C65.8125 53.541 65.0124 51.6143 63.5883 50.1937C62.1642 48.7731 60.2327 47.975 58.2188 47.975Z" fill="black"/>
<path d="M106.312 47.975C104.299 47.975 102.367 48.7731 100.943 50.1937C99.5188 51.6143 98.7188 53.541 98.7188 55.55H103.781C103.781 54.8803 104.048 54.2381 104.523 53.7646C104.997 53.291 105.641 53.025 106.312 53.025C106.984 53.025 107.628 53.291 108.102 53.7646C108.577 54.2381 108.844 54.8803 108.844 55.55H113.906C113.906 53.541 113.106 51.6143 111.682 50.1937C110.258 48.7731 108.326 47.975 106.312 47.975Z" fill="black"/>
</svg>
