<svg width="132" height="132" viewBox="0 0 132 132" fill="none" xmlns="http://www.w3.org/2000/svg">
<path fill-rule="evenodd" clip-rule="evenodd" d="M66 30.2146C84.3893 30.2146 93.8173 52.687 80.7082 65.8694C67.5904 79.0592 45.1987 69.5916 45.1987 51.1098C45.1987 39.6147 54.5092 30.2146 66 30.2146ZM66 0C29.55 0 0 29.55 0 66C0 102.45 29.55 132 66 132C102.45 132 132 102.45 132 66C132 29.55 102.45 0 66 0ZM107.149 24.8507C84.4231 2.12591 47.5769 2.12591 24.8507 24.8507C2.90644 46.7949 2.03642 82.0991 22.8847 105.084C34.104 76.0221 70.3208 65.9208 94.8032 85.5337C101.146 90.6145 106.13 97.3458 109.117 105.084C129.964 82.0991 129.094 46.7949 107.149 24.8507ZM29.0922 110.995C50.5303 128.599 81.4697 128.599 102.906 110.995C95.2742 84.7693 63.4339 74.4934 42.0766 91.6019C35.9497 96.5095 31.3458 103.251 29.0922 110.995ZM75.1888 41.8389C67.071 33.6756 53.0054 39.4093 53.0054 51.1098C53.0054 62.8104 67.0725 68.544 75.1888 60.3808C80.2637 55.2766 80.2637 46.9431 75.1888 41.8389Z" fill="white"/>
</svg>
